<?xml version="1.0" encoding="utf-8"?>
<!-- Generator: Adobe Illustrator 23.0.1, SVG Export Plug-In . SVG Version: 6.00 Build 0)  -->
<svg version="1.1" xmlns="http://www.w3.org/2000/svg" xmlns:xlink="http://www.w3.org/1999/xlink" x="0px" y="0px"
	 viewBox="0 0 1024 1094" style="enable-background:new 0 0 1024 1094;" xml:space="preserve">
<style type="text/css">
	.st0{opacity:0;fill:#FFFFFF;}
	.st1{fill:#1D1F25;}
	.st2{fill:#E0ECDE;}
	.st3{fill:#5BC0C8;}
	.st4{fill:#3BB1CF;}
	.st5{fill:#2F99D7;}
	.st6{fill:#3081C2;}
	.st7{fill:#3AB1D1;}
	.st8{fill:#2D9AD3;}
	.st9{fill:#276AB0;}
	.st10{fill:#2F72B6;}
	.st11{fill:#99E7FD;}
	.st12{fill:#CDF2FB;}
	.st13{opacity:0.4;fill:#3B547C;}
	.st14{fill:#E2F1F8;}
	.st15{fill:#E9E7DA;}
	.st16{fill:#FFFFFF;}
	.st17{fill:#708389;}
	.st18{fill:#FDFFFA;}
	.st19{fill:#2B4556;}
	.st20{fill:#5E7074;}
</style>
<g id="Layer_1">
	<rect class="st0" width="1024" height="1023"/>
	<rect x="1" y="1024" class="st1" width="1024" height="70"/>
	<g>
		<g>
			<g>
				<path class="st2" d="M279.12,1043.44h5.2c4.09,0,7.46,1.08,10.11,3.2c2.67,2.14,4,5.19,4,9.15c0,4.08-1.32,7.2-3.96,9.36
					c-2.65,2.17-6.06,3.24-10.24,3.24h-5.1V1043.44z M282.25,1065.56h1.1c1.62,0,3.16-0.16,4.6-0.48c1.45-0.33,2.71-0.86,3.79-1.62
					c1.07-0.78,1.94-1.77,2.58-2.99c0.64-1.22,0.97-2.74,0.97-4.55c0-1.79-0.32-3.32-0.95-4.59c-0.63-1.28-1.51-2.26-2.66-2.97
					c-1.13-0.72-2.38-1.25-3.75-1.58c-1.37-0.35-2.9-0.5-4.59-0.5h-1.1V1065.56z"/>
				<path class="st2" d="M303.03,1061.16c0.04,1.38,0.49,2.59,1.33,3.61c0.87,1.02,1.99,1.51,3.36,1.51c1.09,0,1.98-0.25,2.69-0.75
					c0.7-0.51,1.36-1.25,1.98-2.26l2.54,1.43c-0.73,1.32-1.75,2.35-3.03,3.12c-1.28,0.74-2.68,1.11-4.21,1.11
					c-2.34,0-4.2-0.76-5.6-2.31c-1.38-1.59-2.07-3.51-2.07-5.83c0-2.43,0.66-4.45,1.98-6.01c1.29-1.56,3.17-2.31,5.64-2.31
					c2.41,0,4.21,0.75,5.44,2.31c1.24,1.54,1.87,3.52,1.87,5.93v0.46H303.03z M311.93,1058.91c-0.19-1.2-0.63-2.15-1.39-2.83
					c-0.75-0.7-1.72-1.05-2.92-1.05c-0.57,0-1.12,0.08-1.62,0.27c-0.5,0.2-0.94,0.48-1.33,0.82c-0.38,0.36-0.71,0.77-0.98,1.25
					c-0.25,0.49-0.42,0.99-0.5,1.55H311.93z"/>
				<path class="st2" d="M323.78,1056.46c-0.45-0.92-1.11-1.37-2-1.37c-0.42,0-0.8,0.15-1.13,0.45c-0.34,0.3-0.5,0.67-0.5,1.08
					c0,0.4,0.13,0.75,0.38,1.02c0.25,0.28,0.6,0.53,1.05,0.78c0.29,0.13,0.51,0.25,0.67,0.3c0.15,0.09,0.4,0.21,0.77,0.37
					c0.17,0.07,0.33,0.16,0.46,0.2c0.13,0.04,0.23,0.08,0.3,0.13c1.1,0.51,1.99,1.09,2.64,1.76c0.64,0.65,0.97,1.55,0.97,2.64
					c0,1.46-0.54,2.69-1.6,3.67c-1.04,0.98-2.31,1.46-3.77,1.46c-0.61,0-1.19-0.08-1.74-0.25c-0.55-0.15-1.07-0.39-1.56-0.69
					c-0.48-0.3-0.89-0.66-1.26-1.09c-0.37-0.44-0.65-0.92-0.85-1.43l2.57-1.15c0.73,1.32,1.68,1.97,2.84,1.97
					c0.47,0,0.9-0.12,1.29-0.38c0.41-0.25,0.71-0.57,0.89-0.95c0.19-0.4,0.23-0.81,0.12-1.28c-0.11-0.43-0.45-0.87-1.03-1.27
					l-2.95-1.55c-0.5-0.26-0.95-0.53-1.33-0.8c-0.38-0.27-0.69-0.55-0.93-0.84c-0.25-0.3-0.43-0.63-0.56-0.98
					c-0.12-0.38-0.18-0.79-0.18-1.28c0-1.26,0.44-2.32,1.34-3.19c0.89-0.88,1.97-1.31,3.26-1.31c1.96,0,3.38,0.88,4.27,2.71
					L323.78,1056.46z"/>
				<path class="st2" d="M334.54,1045.83c0,0.55-0.2,1.03-0.6,1.42c-0.4,0.4-0.89,0.6-1.46,0.6c-0.58,0-1.07-0.19-1.47-0.6
					c-0.4-0.39-0.6-0.87-0.6-1.42c0-0.58,0.2-1.07,0.6-1.48c0.4-0.41,0.89-0.6,1.47-0.6c0.57,0,1.06,0.19,1.46,0.6
					C334.34,1044.76,334.54,1045.24,334.54,1045.83z M333.98,1068.4h-3.01v-15.49h3.01V1068.4z"/>
				<path class="st2" d="M353.39,1068.12c0,2.9-0.55,5.17-1.67,6.79c-1.12,1.58-3.1,2.37-5.94,2.37c-2.2,0-4-0.63-5.4-1.88
					c-1.38-1.25-2.09-2.96-2.13-5.13h2.99c0,1.39,0.44,2.46,1.28,3.24c0.87,0.75,2,1.13,3.4,1.13c1.71,0,2.88-0.49,3.52-1.5
					c0.63-1,0.94-2.38,0.94-4.2v-2.95h-0.07c-0.62,0.95-1.39,1.67-2.31,2.18c-0.92,0.52-1.91,0.77-2.98,0.77
					c-2.32,0-4.15-0.8-5.48-2.41c-1.33-1.62-1.98-3.59-1.98-5.96c0-2.24,0.67-4.12,2.02-5.69c1.36-1.62,3.13-2.41,5.31-2.41
					c2.28,0,4.11,1.04,5.42,3.08h0.07v-2.63h3V1068.12z M345.49,1066.28c1.57,0,2.8-0.54,3.69-1.61c0.91-1.11,1.37-2.45,1.37-4.01
					c0-1.55-0.46-2.86-1.37-3.95c-0.88-1.07-2.12-1.62-3.69-1.62c-1.5,0-2.7,0.55-3.61,1.67c-0.89,1.08-1.34,2.38-1.34,3.9
					c0,1.56,0.45,2.88,1.34,3.97C342.8,1065.74,344,1066.28,345.49,1066.28z"/>
				<path class="st2" d="M360.29,1054.99h0.07c0.43-0.83,1.09-1.44,1.93-1.88c0.85-0.45,1.77-0.65,2.77-0.65
					c1.02,0,1.88,0.14,2.6,0.45c0.7,0.3,1.28,0.74,1.71,1.32c0.44,0.58,0.75,1.27,0.94,2.1c0.19,0.82,0.28,1.78,0.28,2.82v9.24h-3
					v-8.87c0-1.53-0.23-2.64-0.66-3.34c-0.45-0.73-1.37-1.1-2.77-1.1c-0.52,0-0.95,0.05-1.3,0.15c-0.36,0.09-0.67,0.23-0.94,0.42
					c-0.27,0.19-0.49,0.41-0.67,0.65c-0.17,0.25-0.35,0.51-0.5,0.81c-0.07,0.14-0.13,0.35-0.19,0.59c-0.05,0.24-0.1,0.49-0.14,0.73
					c-0.05,0.26-0.09,0.51-0.1,0.77c-0.02,0.26-0.03,0.46-0.03,0.61v1.45v7.12h-3v-15.49h3V1054.99z"/>
				<path class="st2" d="M384.14,1039.67h3v15.82h0.07c1.38-2.03,3.19-3.03,5.44-3.03c2.17,0,3.95,0.8,5.31,2.41
					c1.35,1.56,2.03,3.45,2.03,5.69c0,2.37-0.67,4.34-2,5.96c-1.34,1.61-3.17,2.41-5.47,2.41c-1.06,0-2.06-0.25-2.99-0.77
					c-0.92-0.51-1.69-1.23-2.31-2.18h-0.07v2.42h-3V1039.67z M391.91,1066.28c1.58,0,2.81-0.54,3.7-1.61
					c0.91-1.11,1.36-2.45,1.36-4.01c0-1.55-0.45-2.86-1.36-3.95c-0.89-1.07-2.12-1.62-3.7-1.62c-1.49,0-2.7,0.55-3.61,1.67
					c-0.89,1.08-1.34,2.38-1.34,3.9c0,1.56,0.45,2.88,1.34,3.97C389.21,1065.74,390.42,1066.28,391.91,1066.28z"/>
				<path class="st2" d="M400.41,1052.91h3.5l5.27,9.83l4.91-9.83h3.37l-12.65,24.37h-3.4l6.15-11.53L400.41,1052.91z"/>
				<path class="st2" d="M432.59,1062.13l-2.87,6.26h-3.37l12-26.01l12.01,26.01h-3.37l-2.88-6.26H432.59z M438.36,1049.2
					l-4.47,10.11h8.94L438.36,1049.2z"/>
				<path class="st2" d="M455.26,1068.4h-3v-28.73h3V1068.4z"/>
				<path class="st2" d="M462.66,1068.4h-2.99v-28.73h2.99V1068.4z"/>
				<path class="st2" d="M474.07,1056.56v2.47h-7.29v-2.47H474.07z"/>
				<path class="st2" d="M485.75,1042.68c-0.94-0.43-1.61-0.62-2-0.62c-0.64,0-1.12,0.18-1.4,0.6c-0.29,0.4-0.48,0.9-0.6,1.5
					c-0.06,0.45-0.1,0.79-0.12,1.05c-0.01,0.24-0.02,0.6-0.02,1.03v6.66h4.14v2.78h-4.14v12.71h-2.99v-12.71h-1.37v-2.78h1.37v-7.55
					c0-4.06,1.67-6.09,5.03-6.09c0.74,0,1.43,0.13,2.11,0.4V1042.68z"/>
				<path class="st2" d="M490.39,1055.43h0.09c0.39-0.93,0.94-1.66,1.68-2.18c0.74-0.55,1.6-0.79,2.59-0.79
					c0.83,0,1.65,0.24,2.47,0.75l-1.37,2.72c-0.48-0.42-1.1-0.63-1.83-0.63c-1.53,0-2.56,0.62-3.07,1.84
					c-0.22,0.58-0.38,1.17-0.46,1.72c-0.07,0.55-0.11,1.2-0.11,1.92v7.62h-3v-15.49h3V1055.43z"/>
				<path class="st2" d="M500.69,1061.16c0.05,1.38,0.48,2.59,1.33,3.61c0.88,1.02,1.99,1.51,3.37,1.51c1.09,0,1.99-0.25,2.69-0.75
					c0.7-0.51,1.36-1.25,1.98-2.26l2.53,1.43c-0.73,1.32-1.73,2.35-3.02,3.12c-1.27,0.74-2.68,1.11-4.22,1.11
					c-2.32,0-4.2-0.76-5.6-2.31c-1.37-1.59-2.07-3.51-2.07-5.83c0-2.43,0.65-4.45,1.98-6.01c1.28-1.56,3.16-2.31,5.62-2.31
					c2.42,0,4.23,0.75,5.45,2.31c1.25,1.54,1.86,3.52,1.86,5.93v0.46H500.69z M509.59,1058.91c-0.18-1.2-0.64-2.15-1.39-2.83
					c-0.74-0.7-1.72-1.05-2.92-1.05c-0.57,0-1.12,0.08-1.61,0.27c-0.5,0.2-0.95,0.48-1.34,0.82c-0.39,0.36-0.71,0.77-0.97,1.25
					c-0.24,0.49-0.43,0.99-0.52,1.55H509.59z"/>
				<path class="st2" d="M516.96,1061.16c0.05,1.38,0.5,2.59,1.34,3.61c0.86,1.02,1.98,1.51,3.36,1.51c1.1,0,1.99-0.25,2.69-0.75
					c0.7-0.51,1.37-1.25,1.98-2.26l2.53,1.43c-0.73,1.32-1.73,2.35-3,3.12c-1.28,0.74-2.69,1.11-4.23,1.11
					c-2.33,0-4.2-0.76-5.6-2.31c-1.38-1.59-2.07-3.51-2.07-5.83c0-2.43,0.65-4.45,1.97-6.01c1.29-1.56,3.16-2.31,5.65-2.31
					c2.39,0,4.21,0.75,5.42,2.31c1.25,1.54,1.86,3.52,1.86,5.93v0.46H516.96z M525.88,1058.91c-0.18-1.2-0.65-2.15-1.39-2.83
					c-0.75-0.7-1.73-1.05-2.91-1.05c-0.59,0-1.13,0.08-1.63,0.27c-0.5,0.2-0.95,0.48-1.33,0.82c-0.39,0.36-0.73,0.77-0.97,1.25
					c-0.26,0.49-0.43,0.99-0.52,1.55H525.88z"/>
				<path class="st2" d="M538.57,1056.56v2.47h-7.29v-2.47H538.57z"/>
				<path class="st2" d="M554.15,1065.98h-0.05c-0.63,0.95-1.4,1.67-2.33,2.18c-0.92,0.52-1.92,0.77-2.98,0.77
					c-2.33,0-4.14-0.8-5.47-2.41c-1.34-1.62-2-3.59-2-5.96c0-2.24,0.67-4.12,2.03-5.69c1.36-1.62,3.12-2.41,5.31-2.41
					c2.24,0,4.05,1,5.44,3.03h0.05v-15.82h3v28.73h-3V1065.98z M549.24,1066.28c1.59,0,2.83-0.54,3.71-1.61
					c0.9-1.11,1.37-2.45,1.37-4.01c0-1.55-0.46-2.86-1.37-3.95c-0.88-1.07-2.12-1.62-3.71-1.62c-1.48,0-2.68,0.55-3.59,1.67
					c-0.89,1.08-1.34,2.38-1.34,3.9c0,1.56,0.45,2.88,1.34,3.97C546.56,1065.74,547.76,1066.28,549.24,1066.28z"/>
				<path class="st2" d="M562.05,1054.83c1.62-1.58,3.61-2.37,5.94-2.37c2.33,0,4.31,0.79,5.9,2.37c1.63,1.59,2.44,3.55,2.44,5.87
					s-0.81,4.27-2.44,5.86c-1.58,1.59-3.57,2.37-5.9,2.37c-2.34,0-4.32-0.78-5.94-2.37c-1.59-1.59-2.39-3.54-2.39-5.86
					S560.46,1056.42,562.05,1054.83z M562.65,1060.7c0,1.43,0.53,2.7,1.58,3.81c1.02,1.06,2.28,1.58,3.77,1.58
					c1.45,0,2.72-0.53,3.76-1.58c1.05-1.1,1.58-2.37,1.58-3.81c0-1.46-0.52-2.73-1.58-3.81c-1.04-1.07-2.31-1.59-3.76-1.59
					c-1.49,0-2.75,0.52-3.77,1.59C563.18,1057.97,562.65,1059.24,562.65,1060.7z"/>
				<path class="st2" d="M584.4,1062.78l4.6-10.73l4.57,10.73l4.53-9.86h3.41l-7.94,16.02l-4.57-10.35l-4.6,10.35l-7.93-16.02h3.4
					L584.4,1062.78z"/>
				<path class="st2" d="M606.01,1054.99h0.06c0.44-0.83,1.1-1.44,1.95-1.88c0.83-0.45,1.77-0.65,2.76-0.65
					c1.03,0,1.89,0.14,2.6,0.45c0.71,0.3,1.29,0.74,1.71,1.32c0.46,0.58,0.76,1.27,0.95,2.1c0.19,0.82,0.27,1.78,0.27,2.82v9.24h-3
					v-8.87c0-1.53-0.21-2.64-0.66-3.34c-0.46-0.73-1.37-1.1-2.78-1.1c-0.51,0-0.94,0.05-1.31,0.15c-0.34,0.09-0.66,0.23-0.92,0.42
					c-0.27,0.19-0.5,0.41-0.67,0.65c-0.18,0.25-0.33,0.51-0.5,0.81c-0.05,0.14-0.12,0.35-0.17,0.59c-0.06,0.24-0.1,0.49-0.16,0.73
					c-0.03,0.26-0.07,0.51-0.1,0.77c-0.01,0.26-0.03,0.46-0.03,0.61v1.45v7.12h-3v-15.49h3V1054.99z"/>
				<path class="st2" d="M623.58,1068.4h-3v-28.73h3V1068.4z"/>
				<path class="st2" d="M628.85,1054.83c1.63-1.58,3.61-2.37,5.94-2.37c2.32,0,4.3,0.79,5.9,2.37c1.62,1.59,2.43,3.55,2.43,5.87
					s-0.81,4.27-2.43,5.86c-1.6,1.59-3.58,2.37-5.9,2.37c-2.33,0-4.31-0.78-5.94-2.37c-1.61-1.59-2.4-3.54-2.4-5.86
					S627.25,1056.42,628.85,1054.83z M629.46,1060.7c0,1.43,0.52,2.7,1.57,3.81c1.02,1.06,2.28,1.58,3.77,1.58
					c1.47,0,2.72-0.53,3.76-1.58c1.06-1.1,1.58-2.37,1.58-3.81c0-1.46-0.53-2.73-1.58-3.81c-1.04-1.07-2.28-1.59-3.76-1.59
					c-1.5,0-2.75,0.52-3.77,1.59C629.98,1057.97,629.46,1059.24,629.46,1060.7z"/>
				<path class="st2" d="M660.5,1068.4h-3v-2.42h-0.07c-1.33,1.98-3.1,2.95-5.3,2.95c-2.29,0-4.11-0.8-5.48-2.41
					c-1.33-1.62-1.98-3.59-1.98-5.96c0-2.24,0.68-4.12,2.02-5.69c1.36-1.62,3.14-2.41,5.33-2.41c2.23,0,4.04,1,5.41,3.03h0.07v-2.57
					h3V1068.4z M652.6,1066.28c1.57,0,2.81-0.54,3.71-1.61c0.9-1.11,1.35-2.45,1.35-4.01c0-1.55-0.45-2.86-1.35-3.95
					c-0.9-1.07-2.14-1.62-3.71-1.62c-1.49,0-2.7,0.55-3.6,1.67c-0.89,1.08-1.33,2.38-1.33,3.9c0,1.56,0.44,2.88,1.33,3.97
					C649.9,1065.74,651.11,1066.28,652.6,1066.28z"/>
				<path class="st2" d="M676.05,1065.98h-0.07c-0.62,0.95-1.4,1.67-2.32,2.18c-0.91,0.52-1.91,0.77-2.98,0.77
					c-2.32,0-4.13-0.8-5.47-2.41c-1.34-1.62-1.99-3.59-1.99-5.96c0-2.24,0.67-4.12,2.04-5.69c1.35-1.62,3.11-2.41,5.29-2.41
					c2.25,0,4.06,1,5.44,3.03h0.07v-15.82h3v28.73h-3V1065.98z M671.15,1066.28c1.58,0,2.81-0.54,3.7-1.61
					c0.92-1.11,1.36-2.45,1.36-4.01c0-1.55-0.45-2.86-1.36-3.95c-0.89-1.07-2.12-1.62-3.7-1.62c-1.5,0-2.69,0.55-3.61,1.67
					c-0.88,1.08-1.32,2.38-1.32,3.9c0,1.56,0.44,2.88,1.32,3.97C668.46,1065.74,669.65,1066.28,671.15,1066.28z"/>
				<path class="st2" d="M687.65,1067.02c0,0.53-0.18,0.99-0.56,1.36c-0.38,0.37-0.84,0.55-1.38,0.55c-0.52,0-1-0.19-1.37-0.55
					c-0.37-0.37-0.57-0.83-0.57-1.36c0-0.51,0.2-0.96,0.57-1.35c0.37-0.37,0.85-0.56,1.37-0.56c0.53,0,1,0.19,1.38,0.56
					C687.47,1066.05,687.65,1066.51,687.65,1067.02z"/>
				<path class="st2" d="M704.05,1057.32c-1.24-1.39-2.74-2.1-4.47-2.1c-1.45,0-2.67,0.56-3.69,1.64c-1,1.09-1.5,2.38-1.5,3.8
					c0,1.62,0.5,2.91,1.5,3.93c1.04,1.04,2.33,1.57,3.88,1.57c1.61,0,3.04-0.7,4.28-2.07v3.81c-1.29,0.69-2.72,1.02-4.29,1.02
					c-2.31,0-4.3-0.77-5.94-2.35c-1.63-1.55-2.43-3.47-2.43-5.79c0-2.38,0.81-4.36,2.43-5.96c1.62-1.58,3.65-2.37,6.1-2.37
					c1.61,0,2.99,0.33,4.14,1.02V1057.32z"/>
				<path class="st2" d="M708.3,1054.83c1.62-1.58,3.6-2.37,5.94-2.37c2.34,0,4.31,0.79,5.91,2.37c1.61,1.59,2.42,3.55,2.42,5.87
					s-0.8,4.27-2.42,5.86c-1.6,1.59-3.57,2.37-5.91,2.37c-2.33,0-4.31-0.78-5.94-2.37c-1.6-1.59-2.41-3.54-2.41-5.86
					S706.7,1056.42,708.3,1054.83z M708.9,1060.7c0,1.43,0.5,2.7,1.56,3.81c1.02,1.06,2.28,1.58,3.77,1.58
					c1.46,0,2.73-0.53,3.77-1.58c1.04-1.1,1.56-2.37,1.56-3.81c0-1.46-0.53-2.73-1.56-3.81c-1.04-1.07-2.31-1.59-3.77-1.59
					c-1.5,0-2.75,0.52-3.77,1.59C709.4,1057.97,708.9,1059.24,708.9,1060.7z"/>
				<path class="st2" d="M728.21,1054.87h0.08c0.43-0.72,1.02-1.29,1.78-1.76c0.74-0.43,1.53-0.65,2.35-0.65
					c1.95,0,3.45,0.9,4.5,2.73c0.48-0.83,1.16-1.5,2.02-2c0.84-0.5,1.79-0.73,2.78-0.73c3.46,0,5.17,2.22,5.17,6.68v9.26h-3v-8.77
					c0-0.39-0.02-0.8-0.05-1.18c-0.04-0.38-0.09-0.75-0.19-1.13c-0.09-0.35-0.22-0.68-0.41-1c-0.17-0.3-0.42-0.58-0.72-0.83
					c-0.4-0.26-0.91-0.39-1.53-0.39c-0.63,0-1.16,0.13-1.59,0.39c-0.43,0.25-0.76,0.57-0.99,0.92c-0.25,0.35-0.43,0.84-0.56,1.37
					c-0.12,0.54-0.21,1.05-0.25,1.5c-0.02,0.43-0.05,0.95-0.05,1.51v7.62h-3.01v-8.2c0-0.53,0-0.96-0.03-1.31
					c-0.02-0.37-0.09-0.8-0.2-1.35c-0.11-0.57-0.25-0.98-0.43-1.25c-0.18-0.3-0.45-0.58-0.83-0.83c-0.38-0.24-0.84-0.36-1.37-0.36
					c-1.54,0-2.52,0.67-2.96,1.99c-0.21,0.61-0.34,1.21-0.41,1.74c-0.06,0.56-0.09,1.21-0.09,1.96v7.62h-3v-15.49h3V1054.87z"/>
			</g>
			<g>
				<g>
					<path class="st2" d="M209.16,1059.27c14.16,0,28.32,0,42.48,0c1.29,0,1.29-1.99,0-1.99c-14.16,0-28.32,0-42.48,0
						C207.88,1057.29,207.88,1059.27,209.16,1059.27L209.16,1059.27z"/>
				</g>
				<g>
					<path class="st2" d="M774.36,1059.27c14.15,0,28.31,0,42.47,0c1.3,0,1.3-1.99,0-1.99c-14.15,0-28.32,0-42.47,0
						C773.08,1057.29,773.08,1059.27,774.36,1059.27L774.36,1059.27z"/>
				</g>
			</g>
		</g>
	</g>
</g>
<g id="Layer_2">
	<g>
		<g>
			<circle class="st3" cx="522.36" cy="516.34" r="371.4"/>
			<path class="st4" d="M555.92,293.49c-28.37,10.37-59.93,10.83-87.3,23.61c-47.38,22.12-71.14,74.89-108.6,111.37
				c-40.34,39.29-94.74,55.05-150.57,55.66c15.15,2.54,30.5,3.52,46.02,2.35c61.32-4.65,115.54-42.52,157.65-87.33
				c18.81-20.02,36.41-42.08,60.32-55.6c27.75-15.69,61.15-18.21,90-31.78c39.29-18.48,67.7-58.31,72.39-101.48
				C623.69,248.21,593.32,279.83,555.92,293.49z"/>
			<path class="st5" d="M264.01,565.98c59.52-7.04,116.2-33.45,161.67-72.5c24.95-21.42,47.01-46.81,75.66-62.95
				c28.91-16.29,62.58-22.03,92.62-36.14c45.18-21.23,80.11-60.9,101.75-105.88c12.95-26.92,21.41-55.68,26.74-85.12
				c-5.9-3.78-11.93-7.38-18.05-10.83c-5.37,26.91-13.48,53.16-25.36,77.87c-21.64,44.98-56.57,84.65-101.75,105.88
				c-30.03,14.11-63.71,19.85-92.62,36.14c-28.65,16.14-50.71,41.53-75.66,62.95c-45.47,39.05-102.15,65.46-161.67,72.5
				c-31.81,3.76-64.34,1.8-95.47-5.71c0.32,4.66,0.72,9.29,1.21,13.9C188.77,567.04,226.9,570.37,264.01,565.98z"/>
			<path class="st6" d="M454.78,649.79c36.55-33.13,64.08-77.78,108.22-99.82c37.77-18.86,82.72-18.4,121.08-36.02
				c35.56-16.33,62.56-46.85,85.07-78.86c26.4-37.53,48.12-78.33,64.64-121.14c-5.19-7.97-10.68-15.72-16.45-23.25
				c-16.93,46.39-39.88,90.58-68.29,130.97c-22.51,32.01-49.51,62.53-85.07,78.86c-38.36,17.61-83.31,17.15-121.08,36.02
				c-44.13,22.04-71.67,66.69-108.22,99.82c-63.92,57.94-159.42,76.73-241.57,51.94c1.42,2.72,2.88,5.42,4.37,8.1
				C282.9,728.81,386.74,711.48,454.78,649.79z"/>
			<path class="st7" d="M434.69,636.37c36.55-33.13,64.08-77.78,108.22-99.82c37.77-18.86,82.72-18.4,121.08-36.02
				c35.56-16.33,62.56-46.85,85.07-78.86c28.41-40.39,51.36-84.58,68.29-130.97c-26.29-34.31-58.41-63.92-94.9-87.31
				c-5.33,29.43-13.79,58.2-26.74,85.12c-21.64,44.98-56.57,84.65-101.75,105.88c-30.03,14.11-63.71,19.85-92.62,36.14
				c-28.65,16.14-50.71,41.53-75.66,62.95c-45.47,39.05-102.15,65.46-161.67,72.5c-37.12,4.39-75.24,1.06-110.93-9.89
				c5.03,47.29,18.95,91.92,40.03,132.21C275.27,713.1,370.77,694.31,434.69,636.37z"/>
			<path class="st8" d="M579.32,698.57c38.23-37.11,87.43-62.79,139.74-72.94c34.48-6.69,70.89-6.99,102.68-21.93
				c24.98-11.73,45.07-31.61,64.26-51.44c2.23-2.3,4.43-4.64,6.65-6.95c0.74-9.56,1.12-19.22,1.12-28.96
				c0-74.66-22.05-144.17-59.97-202.39c-16.53,42.81-38.24,83.61-64.64,121.14c-22.51,32.01-49.51,62.53-85.07,78.86
				c-38.36,17.61-83.31,17.15-121.08,36.02c-44.13,22.04-71.67,66.69-108.22,99.82c-68.04,61.68-171.88,79.01-257.3,46.62
				c41.15,74.09,106.91,132.63,186.24,164.57c29.64-6.06,57.96-18.53,81.96-36.99C510.49,789.53,538.76,737.94,579.32,698.57z"/>
			<path class="st9" d="M886,552.26c-19.19,19.83-39.28,39.71-64.26,51.44c-31.79,14.94-68.2,15.24-102.68,21.93
				c-52.31,10.15-101.5,35.82-139.74,72.94c-40.56,39.37-68.83,90.96-113.64,125.42c-24,18.46-52.31,30.93-81.96,36.99
				c8.04,3.24,16.22,6.2,24.52,8.87c24.3-6.82,47.33-18.07,67.36-33.47c44.81-34.47,73.08-86.05,113.64-125.42
				c38.23-37.11,87.43-62.79,139.74-72.94c34.48-6.69,70.89-6.99,102.68-21.93c22.32-10.48,40.73-27.47,58.09-45.11
				c1.25-8.47,2.23-17.02,2.89-25.67C890.42,547.62,888.23,549.96,886,552.26z"/>
			<path class="st10" d="M831.66,616.09c-31.79,14.94-68.2,15.24-102.68,21.93c-52.31,10.15-101.5,35.82-139.74,72.94
				c-40.56,39.37-68.83,90.96-113.64,125.42c-20.03,15.4-43.06,26.65-67.36,33.47c35.96,11.6,74.3,17.89,114.12,17.89
				c186.56,0,340.97-137.55,367.39-316.77C872.4,588.62,853.98,605.61,831.66,616.09z"/>
			
				<ellipse transform="matrix(0.9796 -0.2008 0.2008 0.9796 -50.8149 81.8553)" class="st11" cx="378" cy="291.36" rx="25.61" ry="17.45"/>
			
				<ellipse transform="matrix(0.9796 -0.2008 0.2008 0.9796 -50.8149 81.8553)" class="st12" cx="378" cy="291.36" rx="17.98" ry="12.25"/>
			
				<ellipse transform="matrix(0.9796 -0.2008 0.2008 0.9796 -49.0006 135.0918)" class="st11" cx="641.27" cy="309.03" rx="33.77" ry="23"/>
			
				<ellipse transform="matrix(0.9796 -0.2008 0.2008 0.9796 -49.0006 135.0918)" class="st12" cx="641.27" cy="309.03" rx="23.71" ry="16.15"/>
			
				<ellipse transform="matrix(0.9796 -0.2008 0.2008 0.9796 -41.3128 159.6546)" class="st11" cx="766.17" cy="283.43" rx="33.77" ry="23"/>
			
				<ellipse transform="matrix(0.9796 -0.2008 0.2008 0.9796 -41.3128 159.6546)" class="st12" cx="766.17" cy="283.43" rx="23.71" ry="16.15"/>
			
				<ellipse transform="matrix(0.9565 -0.2916 0.2916 0.9565 -93.2522 113.3359)" class="st11" cx="333.56" cy="369.48" rx="19.9" ry="13.55"/>
			
				<ellipse transform="matrix(0.9565 -0.2916 0.2916 0.9565 -93.2522 113.3359)" class="st12" cx="333.56" cy="369.48" rx="13.97" ry="9.52"/>
		</g>
		<path class="st13" d="M846.78,604.83c13.88-14.96,25.35-32.15,33.6-50.82c7.46-16.89,13.63-36.19,10.91-52.9
			c-1.72-10.61-7.01-20.18-17.85-27.42c-19.34-12.93-38.01-26.95-56.72-40.89c-3.95-13.58-16.47-23.51-31.33-23.51
			c-0.24,0-0.48,0.03-0.72,0.04c-11.05-7.87-22.23-15.52-33.71-22.68c-37.89-23.64-81.93-33.92-126.82-37.5c0,0,0-0.01,0-0.01
			c-0.2-0.02-0.41-0.03-0.61-0.04c-2.42-0.19-4.85-0.36-7.28-0.51c-0.85-0.05-1.7-0.1-2.56-0.15c-2.18-0.13-4.37-0.24-6.55-0.34
			c-1.42-0.06-2.84-0.11-4.27-0.16c-1.68-0.06-3.37-0.13-5.05-0.18c-3.22-0.09-6.43-0.15-9.65-0.19c-0.01,0-0.03,0-0.04,0
			c-0.5-0.01-1.01-0.02-1.51-0.03c-8.69-16.53-24.33-30.09-39.82-41.37c-52.86-38.47-110.38-63.43-177.02-60.29
			c-31.26,1.48,3.31,39.11,10.92,50.87c23.6,36.45,31.96,82.12,24.26,124.77c-36.83,24.23-70.81,52.95-104.53,81.5
			c-10.05,8.51-20.24,17.18-27.5,28.17c-1.15,1.74-2.87,3.81-4.87,3.19c-1.18-0.37-1.87-1.57-2.44-2.67
			c-12.01-23.12-22.24-50.54-37.85-71.33c-13.84-18.43-34.41-33.93-54.06-45.59c-8.93-5.3-19.55-10.08-29.37-6.74
			c-1.6,0.54-3.22,1.38-4.03,2.86c-0.96,1.75-0.55,3.91-0.07,5.86c7.15,29.11,22.2,55.89,28.44,85.21
			c7.82,36.7,8.44,91.32-9.94,125.18c-8.26,15.21-21.04,27.85-27.55,43.89c-2.93,7.21-3.5,17.35,3.4,20.95
			c3,1.57,6.6,1.34,9.97,0.97c23.52-2.58,46.4-10.36,66.81-22.3c10.05-5.87,19.51-12.75,28.17-20.53c6.25-5.61,14.49-19.92,22.83-21
			c5.01,12.25,11.02,24.69,18.06,35.36c10.61,16.1,22.77,31.18,36.18,45.05c-1.21,4.04-2.7,8.21-4.42,12.58
			c-8.97,22.93-20.76,44.75-34.97,64.87c-2.56,3.63-5.18,7.22-7.89,10.73c-2.48,3.2-5.16,6.81-4.75,10.84
			c0.71,6.81,9.14,9.41,15.95,10.14c50.33,5.37,104.54-6.63,143.62-37.35c8.9,6.22,18.58,11.42,28.61,15.5
			c79.64,32.37,173.11,29.32,251.69-4.77c29.12-12.64,55.19-29.9,76.86-50.85c15.22,1.64,30.27,4.77,44.83,9.47
			c12.74,4.11,25.33,9.42,38.68,10.32c2.39,0.16,4.93,0.14,6.97-1.09c1.54-0.93,2.51-2.34,3.11-3.98v0c0,0,0,0,0,0
			c0.22-0.61,0.39-1.26,0.52-1.93c0.03-0.15,0.05-0.3,0.07-0.46c0.09-0.53,0.15-1.06,0.19-1.61c0.01-0.19,0.03-0.38,0.04-0.57
			c0.02-0.53,0.03-1.06,0.02-1.59c0-0.18,0-0.36-0.01-0.53c-0.02-0.68-0.06-1.36-0.12-2.02c-3.09-34.43-16.63-67.8-38.17-94.82
			c4.89-15.13,8.04-31.02,9.3-47.53C846.77,604.88,846.78,604.86,846.78,604.83z"/>
		<g>
			<path class="st14" d="M313.82,657.3c10.45,14.92,10.29,28.26,5.72,43.54c-13.41-13.86-25.56-28.94-36.18-45.05
				c-7.04-10.68-13.04-23.11-18.06-35.36c0.01,0,0.02-0.01,0.03-0.01C284.17,618.06,304.31,643.71,313.82,657.3z"/>
			<path class="st15" d="M456.53,741.69c7.42-10.72,13.45-22.84,14.53-35.84c0.56-6.77-0.23-13.57-1.03-20.31
				c-3.97-33.76-8.6-70.26,26.68-90.34c24.93-14.19,55.89-3.83,84.55-2.76c34.08,1.27,67.24-11.33,97.35-27.34
				c21.37-11.36,41.77-24.54,60.91-39.35c9.69-7.49,19.13-15.46,29.97-21.17c8.4-4.43,17.48-7.42,26.58-10.12
				c20.19-5.98,41.06-10.64,62.1-9.87c12.31,0.45,24.71,2.98,36.01,7.79c2.71,16.72-3.46,36.02-10.91,52.9
				c-8.24,18.67-19.72,35.86-33.6,50.82c-1.25,16.53-4.42,32.44-9.31,47.6c-10.93,33.86-30.42,63.95-56.13,88.81
				c-21.67,20.96-47.73,38.22-76.86,50.85c-78.57,34.09-172.04,37.14-251.69,4.77c-10.04-4.08-19.72-9.28-28.61-15.5
				C438.27,763.85,448.29,753.6,456.53,741.69z"/>
			<path class="st16" d="M793.11,637.76c18.06-8.52,34.62-20.1,49.02-33.94c-2.46,12.84-5.21,25.64-6.21,38.52
				c-0.05,0.6-0.13,1.28-0.59,1.67c-0.53,0.44-1.31,0.33-1.98,0.19c-9.5-1.96-18.99-3.91-28.49-5.87
				c-3.46,10.78-7.71,21.3-12.7,31.46c-0.7,1.42-1.55,2.96-3.04,3.47c-1.14,0.4-2.4,0.09-3.57-0.21
				c-8.51-2.22-17.03-4.38-25.53-6.66c-5.64-1.51-13.67-7-19.5-4.19c-4.84,2.34-10.64,10.99-14.53,14.92
				c-5.69,5.76-11.14,11.74-16.35,17.95c-12.77-6.87-25.54-13.75-38.31-20.62c-2.28-1.23-4.74-2.49-7.31-2.21
				c-2.23,0.24-4.16,1.6-5.97,2.92c-10.38,7.53-20.76,15.06-31.14,22.58c-12.45-12.82-24.89-25.63-37.34-38.45
				c-9.16,8.3-19.61,15.18-30.86,20.31c-5.14-18.47-11.06-36.72-17.71-54.71c33.05,27.33,76.99,35.95,119,38
				C705.53,665.11,751.77,657.26,793.11,637.76z"/>
			<path class="st17" d="M840.38,643.71c21.53,27.02,35.07,60.4,38.17,94.82c0.42,4.65,0.18,10.27-3.81,12.69
				c-2.05,1.24-4.59,1.26-6.97,1.09c-13.36-0.9-25.95-6.21-38.68-10.32c-14.56-4.7-29.62-7.84-44.83-9.47
				C809.96,707.65,829.45,677.56,840.38,643.71z"/>
			<path class="st17" d="M134.12,662.32c6.51-16.04,19.29-28.68,27.55-43.89c18.38-33.86,17.75-88.48,9.94-125.18
				c-6.24-29.32-21.29-56.1-28.44-85.21c-0.48-1.94-0.89-4.1,0.07-5.86c0.81-1.48,2.44-2.31,4.03-2.86
				c9.83-3.34,20.45,1.44,29.37,6.74c19.65,11.66,40.22,27.16,54.06,45.59c15.62,20.8,25.84,48.21,37.85,71.33
				c0.57,1.1,1.26,2.3,2.44,2.67c2,0.62,3.72-1.44,4.87-3.19c7.26-10.99,17.45-19.66,27.5-28.17c33.71-28.55,67.7-57.28,104.53-81.5
				c7.7-42.65-0.65-88.32-24.26-124.77c-7.62-11.76-42.19-49.39-10.92-50.87c66.64-3.15,124.16,21.81,177.02,60.29
				c15.49,11.27,31.13,24.83,39.82,41.37c57.45,0.45,115.91,8.91,164.34,39.11c42.36,26.43,80.89,59.23,122.47,87.05
				c10.84,7.25,16.12,16.82,17.85,27.42c-11.3-4.81-23.7-7.34-36.01-7.79c-21.04-0.77-41.91,3.89-62.1,9.87
				c-9.11,2.7-18.18,5.69-26.58,10.12c-10.83,5.71-20.28,13.68-29.97,21.17c-19.14,14.81-39.54,27.99-60.91,39.35
				c-30.11,16.01-63.27,28.61-97.35,27.34c-28.67-1.07-59.62-11.43-84.55,2.76c-35.28,20.08-30.65,56.57-26.68,90.34
				c0.79,6.75,1.59,13.55,1.03,20.31c-1.08,13-7.11,25.12-14.53,35.84c-8.25,11.91-18.26,22.16-29.45,30.95
				c-39.08,30.72-93.29,42.72-143.62,37.35c-6.8-0.73-15.24-3.33-15.95-10.14c-0.42-4.03,2.27-7.64,4.75-10.84
				c17.79-22.98,32.28-48.52,42.86-75.6c1.71-4.38,3.21-8.54,4.42-12.58c4.56-15.27,4.73-28.62-5.72-43.54
				c-9.52-13.58-29.65-39.24-48.48-36.88c-0.01,0-0.02,0.01-0.03,0.01c-8.34,1.08-16.58,15.39-22.83,21
				c-8.66,7.77-18.13,14.65-28.17,20.53c-20.41,11.93-43.29,19.71-66.81,22.3c-3.37,0.37-6.96,0.6-9.97-0.97
				C130.63,679.67,131.2,669.54,134.12,662.32z"/>
			<circle class="st18" cx="634.32" cy="493.07" r="40.95"/>
			<path class="st19" d="M634.32,462.91c-4.47,0-8.7,1-12.52,2.75l6.06,21.7l-22.63-2.12c-0.67,2.5-1.06,5.12-1.06,7.83
				c0,16.66,13.5,30.16,30.16,30.16s30.16-13.5,30.16-30.16S650.97,462.91,634.32,462.91z"/>
			<circle class="st18" cx="788.3" cy="433.2" r="32.65"/>
			<path class="st19" d="M788.3,409.16c-3.57,0-6.94,0.8-9.98,2.19l4.83,17.3l-18.05-1.69c-0.54,2-0.85,4.08-0.85,6.25
				c0,13.28,10.77,24.05,24.05,24.05s24.05-10.77,24.05-24.05C812.35,419.92,801.58,409.16,788.3,409.16z"/>
			<g>
				<g>
					<path class="st19" d="M850.08,596.48c-4.34,5.67-9.3,10.86-14.6,15.66c-5.31,4.8-11.04,9.12-16.94,13.18
						c-5.9,4.06-12.05,7.76-18.4,11.08c-3.16,1.69-6.4,3.23-9.66,4.7c-1.63,0.73-3.24,1.5-4.88,2.21l-4.95,2.05
						c-13.23,5.42-26.95,9.59-40.87,12.79c-13.93,3.17-28.12,5.14-42.35,6.18c-14.23,1.07-28.55,0.99-42.77,0.06
						c-14.22-0.86-28.41-2.72-42.37-5.68c-13.98-2.9-27.66-7.36-40.62-13.38c-1.63-0.72-3.19-1.6-4.79-2.39l-2.38-1.22l-1.19-0.61
						l-1.16-0.68c-3.08-1.81-6.19-3.56-9.11-5.63c-6-3.87-11.48-8.49-16.75-13.25c-0.2-0.19-0.22-0.5-0.04-0.71
						c0.18-0.2,0.49-0.22,0.7-0.05l0.01,0.01c10.74,9.19,22.83,16.68,35.7,22.38c3.26,1.34,6.46,2.8,9.8,3.93
						c1.66,0.59,3.3,1.22,4.97,1.78l5.04,1.57l2.52,0.79l2.55,0.69l5.1,1.38l5.15,1.19c1.71,0.4,3.43,0.8,5.16,1.11
						c13.82,2.75,27.86,4.34,41.95,5.16c14.09,0.84,28.21,0.84,42.25-0.3c14.04-1.11,28.02-3.14,41.73-6.34
						c13.72-3.12,27.24-7.2,40.28-12.5l4.89-1.99c1.62-0.68,3.22-1.42,4.83-2.13c3.22-1.42,6.4-2.9,9.51-4.52
						c6.24-3.2,12.3-6.77,18.12-10.7c11.68-7.84,22.25-17.08,32.87-26.48c0.21-0.18,0.52-0.17,0.71,0.04
						C850.22,596.02,850.23,596.29,850.08,596.48z"/>
				</g>
				<g>
					<path class="st19" d="M768.54,542.59c-0.65,0.67-1.21,0.95-1.76,1.1c-0.55,0.2-1.1,0.2-1.64,0.28
						c-0.54,0.12-1.08,0.25-1.61,0.35l-1.58,0.47c-2.08,0.71-4.08,1.67-5.93,2.9c-1.86,1.21-3.51,2.75-4.95,4.48
						c-1.46,1.73-2.7,3.64-3.84,5.8l0,0.01c-0.13,0.25-0.44,0.35-0.69,0.22c-0.17-0.09-0.27-0.27-0.28-0.45
						c-0.01-2.58,0.83-5.16,2.17-7.41c1.36-2.26,3.19-4.21,5.27-5.85c2.09-1.62,4.51-2.86,7.09-3.55l1.96-0.42
						c0.66-0.09,1.33-0.15,1.99-0.21c0.67,0.01,1.34-0.06,2,0.06c0.66,0.2,1.32,0.52,1.89,1.23c0.23,0.29,0.2,0.7-0.05,0.96
						L768.54,542.59z"/>
				</g>
				<g>
					<path class="st19" d="M841.5,510.36c0.18-0.87,0.59-1.42,1.06-1.85c0.49-0.39,1.07-0.6,1.62-0.89
						c0.57-0.23,1.13-0.47,1.71-0.69l1.76-0.55c2.38-0.63,4.87-0.83,7.32-0.65c2.44,0.2,4.86,0.7,7.12,1.61
						c2.25,0.92,4.34,2.26,5.94,4.06c0.19,0.21,0.17,0.54-0.04,0.73c-0.14,0.13-0.34,0.16-0.51,0.1l-0.01,0
						c-2.18-0.74-4.25-1.37-6.35-1.82c-2.09-0.46-4.2-0.74-6.31-0.72c-2.11,0.01-4.2,0.23-6.26,0.62l-1.54,0.34
						c-0.5,0.15-1.01,0.28-1.52,0.42c-1.02,0.33-1.87,0.83-3.51,0.17l-0.03-0.01C841.62,511.07,841.43,510.71,841.5,510.36z"/>
				</g>
				<g>
					<path class="st19" d="M553.8,607.31c-0.46,0.43-0.91,0.74-1.36,0.99c-0.44,0.3-0.88,0.52-1.32,0.72
						c-0.43,0.23-0.87,0.4-1.32,0.56c-0.43,0.2-0.87,0.38-1.3,0.59c-1.71,0.85-3.28,1.96-4.72,3.24c-1.45,1.27-2.77,2.7-3.97,4.25
						c-1.21,1.53-2.3,3.19-3.25,4.93c-1.94,3.46-3.32,7.26-4.23,11.16c-0.92,3.91-1.39,7.92-1.18,12.04l0,0.01
						c0.01,0.28-0.2,0.52-0.48,0.53c-0.23,0.01-0.43-0.13-0.5-0.34c-1.43-4.08-1.58-8.55-1-12.83c0.61-4.3,1.95-8.49,3.9-12.41
						c1.98-3.89,4.61-7.58,8.12-10.41c1.75-1.41,3.7-2.6,5.78-3.5c1.05-0.42,2.11-0.85,3.25-1.01c0.57-0.06,1.15-0.07,1.73-0.01
						c0.58,0.09,1.16,0.24,1.73,0.51c0.29,0.14,0.42,0.49,0.28,0.79c-0.03,0.07-0.07,0.12-0.13,0.17L553.8,607.31z"/>
				</g>
			</g>
			<g>
				<g>
					<path class="st19" d="M470.86,530.67c0.1,1.07,0.08,2.1,0.01,3.1c-0.03,1.01-0.09,2.01-0.22,3c-0.08,0.99-0.2,1.98-0.34,2.95
						l-0.3,2.95c-0.32,3.95-0.29,7.92-0.02,11.88c0.24,3.96,0.76,7.91,1.5,11.82c0.7,3.92,1.63,7.81,2.75,11.64
						c2.2,7.7,5.14,15.19,8.35,22.6c3.2,7.41,6.64,14.77,9.86,22.24c0.11,0.25-0.01,0.55-0.26,0.66c-0.23,0.1-0.5,0.01-0.63-0.2
						c-4.25-6.94-8.3-14.01-11.9-21.36c-3.59-7.34-6.76-14.94-9.22-22.81c-1.21-3.95-2.23-7.96-3.01-12.02
						c-0.74-4.07-1.25-8.2-1.47-12.35c-0.19-4.15-0.07-8.32,0.39-12.46l0.41-3.1c0.17-1.03,0.37-2.05,0.62-3.06
						c0.28-1.01,0.63-2,1.01-2.97c0.43-0.96,0.91-1.91,1.51-2.8c0.16-0.24,0.49-0.31,0.73-0.15c0.14,0.09,0.22,0.24,0.23,0.39
						L470.86,530.67z"/>
				</g>
				<g>
					<path class="st19" d="M446.7,539.21c0.1,1.07,0.08,2.1,0.01,3.1c-0.03,1.01-0.09,2.01-0.22,3c-0.08,0.99-0.2,1.98-0.34,2.95
						l-0.3,2.95c-0.32,3.95-0.29,7.92-0.02,11.88c0.24,3.96,0.76,7.91,1.5,11.82c0.7,3.92,1.63,7.81,2.75,11.64
						c2.2,7.7,5.14,15.19,8.35,22.6c3.2,7.41,6.64,14.77,9.86,22.24c0.11,0.25-0.01,0.55-0.26,0.66c-0.23,0.1-0.5,0.01-0.63-0.2
						c-4.25-6.94-8.3-14.01-11.9-21.36c-3.59-7.34-6.76-14.94-9.22-22.81c-1.21-3.95-2.23-7.96-3.01-12.02
						c-0.74-4.07-1.25-8.2-1.47-12.35c-0.19-4.15-0.07-8.32,0.39-12.46l0.41-3.1c0.17-1.03,0.37-2.05,0.62-3.06
						c0.28-1.01,0.63-2,1.01-2.97c0.43-0.96,0.91-1.91,1.51-2.8c0.16-0.24,0.49-0.31,0.73-0.15c0.14,0.09,0.22,0.24,0.23,0.39
						L446.7,539.21z"/>
				</g>
				<g>
					<path class="st19" d="M425.39,549.99c0.1,1.07,0.08,2.1,0.01,3.1c-0.03,1.01-0.09,2.01-0.22,3c-0.08,0.99-0.2,1.98-0.34,2.95
						l-0.3,2.95c-0.32,3.95-0.29,7.92-0.02,11.88c0.24,3.96,0.76,7.91,1.5,11.82c0.7,3.92,1.63,7.81,2.75,11.64
						c2.2,7.7,5.14,15.19,8.35,22.6c3.2,7.41,6.64,14.77,9.86,22.24c0.11,0.25-0.01,0.55-0.26,0.66c-0.23,0.1-0.5,0.01-0.63-0.2
						c-4.25-6.94-8.3-14.01-11.9-21.36c-3.59-7.34-6.76-14.94-9.22-22.81c-1.21-3.95-2.23-7.96-3.01-12.02
						c-0.74-4.07-1.25-8.2-1.47-12.35c-0.19-4.15-0.07-8.32,0.39-12.46l0.41-3.1c0.17-1.03,0.37-2.05,0.62-3.06
						c0.28-1.01,0.63-2,1.01-2.97c0.43-0.96,0.91-1.91,1.51-2.8c0.16-0.24,0.49-0.31,0.73-0.15c0.14,0.09,0.22,0.24,0.23,0.39
						L425.39,549.99z"/>
				</g>
			</g>
			<path class="st20" d="M585.06,366.45c5.75-3.68,9.27-10.59,8.86-17.4c-0.21-3.56-1.41-6.95-2.87-10.22
				c12,0.12,24.03,0.62,36.01,1.58c-1.35,4.09-3.52,7.93-6.4,11.06C611.74,361.15,598.16,365.14,585.06,366.45z"/>
			<path class="st20" d="M390.39,762.46c43.34-17.2,64.64-52.55,77.77-94.32c0.51,5.82,1.2,11.65,1.88,17.4
				c0.79,6.75,1.59,13.55,1.03,20.31c-1.08,13-7.11,25.12-14.53,35.84c-8.25,11.91-18.26,22.16-29.45,30.95
				c-39.08,30.72-93.29,42.72-143.62,37.35c-6.8-0.73-15.24-3.33-15.95-10.14c-0.42-4.03,2.27-7.64,4.75-10.84
				c2.72-3.51,5.33-7.1,7.89-10.73C317.81,779.17,355.75,776.21,390.39,762.46z"/>
			<path class="st20" d="M840.38,643.71c21.53,27.02,35.07,60.4,38.17,94.82c0.26,2.86,0.26,6.09-0.7,8.71
				c-11.32-28.45-27.49-54.96-47.69-77.96C834.1,661.02,837.54,652.5,840.38,643.71z"/>
		</g>
	</g>
</g>
</svg>
